# xmcd CD database file
#
# Track frame offsets:
#	150
#	52828
#	115651
#	152612
#	174889
#
# Disc length: 3370 seconds
#
# Revision: 0
# Processed by: cddbd v1.5.2PL0 Copyright (c) Steve Scherf et al.
# Submitted via: CDex 1.70beta2
#
DISCID=2b0d2805
DTITLE=BUDDY GAY - ERIC CLAPTON - Live At Bonnie Scott's 1987
DYEAR=1987
DGENRE=Blues
TTITLE0=Hurt So Bad
TTITLE1=Wanna Make Love
TTITLE2=Someday Baby
TTITLE3=Early In The Morning
TTITLE4=Rock Me Baby
EXTD=YEAR: 1987
EXTT0=
EXTT1=
EXTT2=
EXTT3=
EXTT4=
PLAYORDER=
